<svg width="104" height="104" viewBox="0 0 104 104" fill="none" xmlns="http://www.w3.org/2000/svg">
<path d="M44.8004 17.3008H50.4004C51.2504 17.3008 51.9254 17.9758 51.9254 18.8258V24.4258C51.9254 25.2758 51.2504 25.9508 50.4004 25.9508H44.8004C43.9504 25.9508 43.2754 25.2758 43.2754 24.4258V18.8258C43.2754 18.0008 43.9504 17.3008 44.8004 17.3008Z" fill="#4872F4"/>
<path d="M44.8004 34.625H50.4004C51.2504 34.625 51.9254 35.3 51.9254 36.15V41.75C51.9254 42.6 51.2504 43.275 50.4004 43.275H44.8004C43.9504 43.275 43.2754 42.6 43.2754 41.75V36.15C43.2754 35.3 43.9504 34.625 44.8004 34.625Z" fill="#4872F4"/>
<path d="M79.4254 34.625H85.0254C85.8754 34.625 86.5504 35.3 86.5504 36.15V41.75C86.5504 42.6 85.8754 43.275 85.0254 43.275H79.4254C78.5754 43.275 77.9004 42.6 77.9004 41.75V36.15C77.9004 35.3 78.5754 34.625 79.4254 34.625Z" fill="#4872F4"/>
<path d="M79.4254 51.9258H85.0254C85.8754 51.9258 86.5504 52.6008 86.5504 53.4508V59.0508C86.5504 59.9008 85.8754 60.5758 85.0254 60.5758H79.4254C78.5754 60.5758 77.9004 59.9008 77.9004 59.0508V53.4508C77.9004 52.6258 78.5754 51.9258 79.4254 51.9258Z" fill="#4872F4"/>
<path d="M79.4254 69.25H85.0254C85.8754 69.25 86.5504 69.925 86.5504 70.775V76.375C86.5504 77.225 85.8754 77.9 85.0254 77.9H79.4254C78.5754 77.9 77.9004 77.225 77.9004 76.375V70.775C77.9004 69.925 78.5754 69.25 79.4254 69.25Z" fill="#4872F4"/>
<path d="M79.4254 86.5469H85.0254C85.8754 86.5469 86.5504 87.2219 86.5504 88.0719V95.1969H77.9004V88.0719C77.9004 87.2469 78.5754 86.5469 79.4254 86.5469Z" fill="#4872F4"/>
<path d="M51.9254 51.9258H43.2754V60.5758H51.9254V51.9258Z" fill="#4872F4"/>
<path d="M44.8004 69.25H50.4004C51.2504 69.25 51.9254 69.925 51.9254 70.775V76.375C51.9254 77.225 51.2504 77.9 50.4004 77.9H44.8004C43.9504 77.9 43.2754 77.225 43.2754 76.375V70.775C43.2754 69.925 43.9504 69.25 44.8004 69.25Z" fill="#4872F4"/>
<path d="M25.9492 17.3008H33.0742C33.9242 17.3008 34.5992 17.9758 34.5992 18.8258V24.4258C34.5992 25.2758 33.9242 25.9508 33.0742 25.9508H25.9492V17.3008Z" fill="#4872F4"/>
<path d="M25.9492 34.625H33.0742C33.9242 34.625 34.5992 35.3 34.5992 36.15V41.75C34.5992 42.6 33.9242 43.275 33.0742 43.275H25.9492V34.625Z" fill="#4872F4"/>
<path d="M8.65039 69.25H15.7754C16.6254 69.25 17.3004 69.925 17.3004 70.775V76.375C17.3004 77.225 16.6254 77.9 15.7754 77.9H8.65039V69.25Z" fill="#4872F4"/>
<path d="M8.65039 86.5469H15.7754C16.6254 86.5469 17.3004 87.2219 17.3004 88.0719V95.1969H8.65039V86.5469Z" fill="#4872F4"/>
<path d="M8.65 103.875H0V55.875C0 53.7 1.775 51.925 3.95 51.925H13.35C15.525 51.925 17.3 50.15 17.3 47.975V3.95C17.3 1.775 19.075 0 21.25 0H82.575C84.75 0 86.525 1.775 86.525 3.95V13.35C86.525 15.525 88.3 17.3 90.475 17.3H99.875C102.05 17.3 103.825 19.075 103.825 21.25V103.85H95.175V29.925C95.175 27.75 93.4 25.975 91.225 25.975H73.175C71 25.975 69.225 27.75 69.225 29.925V103.875H60.575V21.25C60.575 19.075 62.35 17.3 64.525 17.3H73.925C76.1 17.3 77.875 15.525 77.875 13.35V12.6C77.875 10.425 76.1 8.65 73.925 8.65H29.925C27.75 8.65 25.975 10.425 25.975 12.6V47.975C25.975 50.15 27.75 51.925 29.925 51.925H30.675C32.85 51.925 34.625 53.7 34.625 55.875V103.85H25.975V64.55C25.975 62.375 24.2 60.6 22.025 60.6H12.6C10.425 60.6 8.65 62.375 8.65 64.55V103.875Z" fill="#041D36"/>
<path d="M44.8004 86.5469H50.4004C51.2504 86.5469 51.9254 87.2219 51.9254 88.0719V95.1969H43.2754V88.0719C43.2754 87.2469 43.9504 86.5469 44.8004 86.5469Z" fill="#4872F4"/>
</svg>
