<svg width="105" height="105" viewBox="0 0 105 105" fill="none" xmlns="http://www.w3.org/2000/svg">
<path d="M70.2193 96.1504V62.5275C70.2193 61.6709 69.5364 60.957 68.6379 60.957H36.3275C35.4649 60.957 34.7461 61.6352 34.7461 62.5275V96.1504H43.5874V71.308C43.5874 70.4514 44.2703 69.7375 45.1688 69.7375H59.7606C60.6232 69.7375 61.342 70.4157 61.342 71.308V96.1504H70.2193Z" fill="#969696"/>
<path d="M47.431 32.3633H57.6021C58.4647 32.3633 59.1835 33.0415 59.1835 33.9338V44.0349C59.1835 44.8915 58.5006 45.6054 57.6021 45.6054H47.431C46.5684 45.6054 45.8496 44.9272 45.8496 44.0349V33.9338C45.8496 33.0415 46.5684 32.3633 47.431 32.3633Z" fill="#969696"/>
<path d="M51.3858 0.455086L0.458241 51.0678C-0.152747 51.6746 -0.152747 52.674 0.458241 53.2808L4.51951 57.3141C5.1305 57.9209 6.13683 57.9209 6.74782 57.3141L9.98246 54.1017C10.9529 53.138 12.642 53.8162 12.642 55.2082V105H92.3579V55.1368C92.3579 53.7448 94.0471 53.0666 95.0175 54.0303L98.2522 57.2427C98.8632 57.8495 99.8695 57.8495 100.48 57.2427L104.542 53.2094C105.153 52.6026 105.153 51.6032 104.542 50.9964L53.6142 0.455086C53.0032 -0.151695 51.9968 -0.151695 51.3858 0.455086ZM83.5166 96.1481H21.4834V43.251C21.4834 42.8227 21.6631 42.4301 21.9506 42.1446L51.3858 12.912C51.9968 12.3052 53.0032 12.3052 53.6142 12.912L83.0494 42.1446C83.3369 42.4301 83.5166 42.8227 83.5166 43.251V96.1481Z" fill="#565656"/>
</svg>
