<svg width="24" height="24" viewBox="0 0 24 24" fill="none" xmlns="http://www.w3.org/2000/svg">
<path fill-rule="evenodd" clip-rule="evenodd" d="M0.334352 2.58953H5.16593C6.47624 2.58953 6.96647 3.30947 7.35852 4.55958L8.68725 8.79227C8.84431 8.65398 9.05029 8.56991 9.27487 8.56991H10.6283C11.1187 8.56991 11.5198 8.97064 11.5198 9.46106C11.5198 9.95147 11.1191 10.3527 10.6283 10.3527H9.60826L10.7721 11.7674C11.4016 12.5323 11.3735 13.5152 11.3735 14.5066V17.765C11.3735 19.0753 10.8046 19.5375 9.49537 19.5375H0.334657C0.150491 19.5375 0.000261778 19.3875 0.000261778 19.2033V9.77195C0.000261778 9.58778 0.150491 9.43755 0.334657 9.43755H6.03364C6.41322 9.43755 6.85812 9.20786 6.66098 8.45757L5.6965 4.78198C5.59828 4.40974 5.42571 4.082 4.83246 4.082H0.334395C0.150229 4.082 0 3.93194 0 3.7476V2.92416C0 2.73983 0.150229 2.58977 0.334395 2.58977L0.334352 2.58953ZM21.5334 22.8518H17.2874C17.0272 22.8518 16.8164 23.0624 16.8164 23.3224V23.8106C16.8164 23.9148 16.9012 24.0003 17.0061 24.0003H21.8149C21.9191 24.0003 22.0046 23.915 22.0046 23.8106V23.3224C22.0046 23.0627 21.7933 22.8518 21.5334 22.8518H21.5334ZM21.8873 4.50374C21.756 4.82842 21.5648 5.10193 21.3134 5.3243C21.0621 5.54632 20.7544 5.71565 20.3887 5.83177C20.0234 5.94773 19.5937 6.00537 19.0987 6.00537H18.4728V8.39968C18.4728 8.43839 18.4601 8.47283 18.4352 8.50387C18.4099 8.53507 18.368 8.55963 18.3103 8.57941C18.2527 8.59885 18.1753 8.61437 18.0786 8.62579C17.9819 8.63722 17.8581 8.64319 17.7074 8.64319C17.5609 8.64319 17.4383 8.63722 17.3397 8.62579C17.2407 8.6142 17.1626 8.59868 17.1044 8.57941C17.0468 8.55997 17.0058 8.53508 16.9832 8.50387C16.9598 8.47266 16.9482 8.43805 16.9482 8.39968V1.6517C16.9482 1.47027 16.9953 1.33402 17.0904 1.24313C17.1849 1.15242 17.3097 1.10723 17.4644 1.10723H19.2323C19.41 1.10723 19.5792 1.11405 19.7393 1.12735C19.8999 1.14082 20.0924 1.17015 20.3164 1.21431C20.5402 1.25899 20.7676 1.34101 20.9974 1.46072C21.2273 1.58059 21.4236 1.73236 21.5859 1.91585C21.7486 2.09916 21.8719 2.31368 21.9571 2.55887C22.0419 2.80442 22.0847 3.08014 22.0847 3.3854C22.0847 3.80642 22.0188 4.17938 21.8875 4.50403L21.8873 4.50374ZM23.4397 0H15.5938C15.2853 0 15.0335 0.25203 15.0335 0.559989V9.32302C15.0335 9.63098 15.2853 9.88335 15.5938 9.88335H23.4397C23.7481 9.88335 24 9.63098 24 9.32302V0.559989C24 0.252025 23.7481 0 23.4397 0ZM20.0088 2.46931C19.8739 2.3878 19.7317 2.33681 19.5828 2.3155C19.4344 2.29436 19.2806 2.28361 19.1218 2.28361H18.4725V4.82866H19.1568C19.4003 4.82866 19.6041 4.79558 19.768 4.7301C19.9325 4.66428 20.0669 4.57254 20.1714 4.45437C20.2756 4.33654 20.3547 4.19552 20.4086 4.03147C20.4628 3.86709 20.4896 3.68838 20.4896 3.49536C20.4896 3.23276 20.4436 3.01605 20.3505 2.84602C20.2579 2.67601 20.1438 2.55067 20.0084 2.46967L20.0088 2.46931ZM18.3486 10.9556H20.684C20.8264 10.9556 20.9437 11.0531 20.9437 11.1721V22.0703C20.9437 22.1895 20.8268 22.2868 20.684 22.2868H18.3486C18.2053 22.2868 18.0892 22.1893 18.0892 22.0703V11.1721C18.0892 11.0528 18.2053 10.9556 18.3486 10.9556ZM6.32155 20.3581H8.91589C9.18565 20.3581 9.40581 20.595 9.40581 20.8854V22.9453C9.40581 23.5259 8.96517 24.0003 8.42631 24.0003H6.81113C6.27227 24.0003 5.83163 23.5259 5.83163 22.9453V20.8854C5.83163 20.5951 6.05177 20.3581 6.32155 20.3581ZM7.47017 13.6119C8.4556 13.6119 9.25434 14.4101 9.25434 15.3955C9.25434 16.381 8.45543 17.1795 7.47017 17.1795C6.48508 17.1795 5.68618 16.3813 5.68618 15.3955C5.68618 14.4101 6.48508 13.6119 7.47017 13.6119Z" fill="#041D36"/>
</svg>
