<?xml version="1.0" encoding="utf-8"?>
<!-- Generator: Adobe Illustrator 26.3.1, SVG Export Plug-In . SVG Version: 6.00 Build 0)  -->
<svg version="1.1" id="Layer_1" xmlns="http://www.w3.org/2000/svg" xmlns:xlink="http://www.w3.org/1999/xlink" x="0px" y="0px"
	 viewBox="0 0 1024 1024" style="enable-background:new 0 0 1024 1024;" xml:space="preserve">
<style type="text/css">
	.st0{fill:#2A62D3;}
	.st1{fill:#6B29D3;}
	.st2{fill:#0E0C0A;}
</style>
<g>
	<g>
		<g>
			<g>
				<path class="st0" d="M35.7,495.9v22.8c9.5-1.7,17.9,9.5,26.5,18.6v-64.6L35.7,495.9z"/>
			</g>
			<g>
				<path class="st0" d="M35.7,459.9v27l26.5-23.2v-27L35.7,459.9z"/>
			</g>
			<g>
				<path class="st0" d="M71.2,436.8v108.7c8,5.4,16.5,4.9,26.5-12.4v-71.9L71.2,436.8z"/>
			</g>
		</g>
		<g>
			<path class="st1" d="M97.6,542.1v14.3c0,17.1-13.9,31-31,31c-17.1,0-31-13.9-31-31v-28.7C57.1,523.8,72.8,585.3,97.6,542.1z"/>
		</g>
	</g>
	<g>
		<path class="st2" d="M144.6,558.8v-88.7h39.2c6.1,0,11.2,0.9,15.5,2.6c4.2,1.7,7.4,4.2,9.6,7.5c2.2,3.3,3.2,7.2,3.2,11.7
			c0,5.1-1.2,9.3-3.7,12.8c-2.5,3.5-6.1,5.8-10.8,7l-0.3-2.4c4,0.8,7.4,2.3,10.3,4.4c2.9,2.1,5.2,4.7,6.8,7.8
			c1.6,3.1,2.4,6.6,2.4,10.5c0,4.5-0.8,8.4-2.3,11.7c-1.5,3.3-3.7,6.1-6.6,8.4c-2.9,2.3-6.2,4-10.1,5.1c-3.8,1.1-8.1,1.6-12.7,1.6
			H144.6z M164.9,505.7h15.8c2.2,0,4.1-0.4,5.6-1.1c1.6-0.7,2.7-1.7,3.5-3c0.8-1.3,1.2-2.9,1.2-4.8c0-2.7-0.9-4.8-2.8-6.4
			c-1.9-1.6-4.6-2.3-8.4-2.3h-15.1V505.7z M164.9,540.8h19.4c2.4,0,4.4-0.4,6-1.1s2.9-1.9,3.9-3.4c0.9-1.5,1.4-3.3,1.4-5.4
			c0-1.9-0.5-3.6-1.5-4.9c-1-1.4-2.3-2.4-4.1-3.1c-1.8-0.7-3.9-1.1-6.3-1.1h-18.8V540.8z"/>
		<path class="st2" d="M254.2,560.2c-5,0-9.2-1.1-12.7-3.2c-3.5-2.2-6.2-5.3-8.1-9.3c-1.9-4.1-2.9-8.9-2.9-14.6v-41.6h20.4v38.8
			c0,2.7,0.4,5,1.3,7c0.8,1.9,2.1,3.4,3.8,4.5c1.7,1.1,3.7,1.6,6.1,1.6c1.8,0,3.4-0.3,4.9-0.9c1.5-0.6,2.7-1.4,3.8-2.5
			c1.1-1.1,1.9-2.3,2.5-3.7c0.6-1.4,0.9-2.9,0.9-4.6v-40.2h20.4v67.3h-19.1l-0.9-13.8l3.8-1.5c-1,3.2-2.7,6.1-5.1,8.6
			c-2.4,2.5-5.2,4.5-8.5,6S258,560.2,254.2,560.2z"/>
		<path class="st2" d="M324,478.2c-3.8,0-6.8-0.9-8.9-2.7c-2.2-1.8-3.2-4.4-3.2-7.8c0-3,1.1-5.5,3.3-7.5c2.2-1.9,5.2-2.9,8.9-2.9
			c3.8,0,6.8,0.9,8.9,2.7c2.1,1.8,3.2,4.4,3.2,7.7c0,3.1-1.1,5.7-3.2,7.6C330.6,477.2,327.7,478.2,324,478.2z M313.8,558.8v-67.3
			h20.3v67.3H313.8z"/>
		<path class="st2" d="M353.3,558.8V465h20.3v93.8H353.3z"/>
		<path class="st2" d="M415.9,560.2c-5.8,0-11-1.5-15.5-4.5c-4.5-3-8.1-7.1-10.7-12.4c-2.6-5.3-3.9-11.3-3.9-18.1
			c0-6.8,1.3-12.8,3.9-18.1c2.6-5.3,6.2-9.4,10.8-12.5c4.6-3,9.8-4.6,15.7-4.6c3,0,6,0.5,8.7,1.4c2.8,0.9,5.3,2.2,7.6,3.8
			c2.3,1.6,4.1,3.4,5.6,5.5c1.4,2.1,2.3,4.2,2.5,6.4l-4.8,1.1V465h20.4v93.8h-18.9l-1.1-15.3l4.1,0.6c-0.3,2.1-1.1,4.1-2.5,6.1
			c-1.4,1.9-3.2,3.7-5.4,5.1c-2.2,1.5-4.7,2.7-7.5,3.5C422,559.8,419,560.2,415.9,560.2z M421.1,543.3c3.1,0,5.8-0.8,8.1-2.3
			c2.3-1.5,4-3.6,5.3-6.3c1.2-2.7,1.8-5.9,1.8-9.5c0-3.7-0.6-6.9-1.8-9.6c-1.2-2.7-3-4.8-5.3-6.3c-2.3-1.5-5-2.3-8.1-2.3
			c-3.1,0-5.8,0.8-8.1,2.3c-2.2,1.5-4,3.6-5.3,6.3c-1.3,2.7-1.9,5.9-1.9,9.6c0,3.6,0.6,6.8,1.9,9.5c1.3,2.7,3,4.8,5.3,6.3
			C415.3,542.6,418,543.3,421.1,543.3z"/>
		<path class="st2" d="M517.9,558.8v-88.7h9.9v88.7H517.9z M522.9,479.7v-9.6h50.8v9.6H522.9z M522.9,519.2v-9.8h44.9v9.8H522.9z"/>
		<path class="st2" d="M616.7,560.1c-6.6,0-12.4-1.5-17.6-4.4c-5.1-3-9.1-7.1-12-12.3c-2.9-5.2-4.4-11.2-4.4-17.9
			c0-6.6,1.5-12.5,4.4-17.6c2.9-5.2,6.9-9.2,12-12.2c5.1-3,11-4.4,17.6-4.4c6.5,0,12.3,1.5,17.4,4.4c5.1,3,9.1,7,12,12.2
			c2.9,5.2,4.4,11,4.4,17.6c0,6.7-1.5,12.6-4.4,17.9c-2.9,5.2-6.9,9.3-12,12.3C629,558.6,623.2,560.1,616.7,560.1z M616.7,551.1
			c4.6,0,8.8-1.1,12.4-3.4c3.6-2.2,6.5-5.3,8.5-9.1c2-3.8,3-8.2,3-13.1c0-4.9-1-9.3-3-13.1c-2-3.8-4.9-6.8-8.5-8.9
			c-3.6-2.2-7.8-3.2-12.4-3.2c-4.6,0-8.8,1.1-12.5,3.2s-6.6,5.2-8.6,9c-2.1,3.8-3.1,8.2-3,13c-0.1,4.9,0.9,9.3,3,13.1
			c2.1,3.8,4.9,6.9,8.6,9.1C607.9,550,612.1,551.1,616.7,551.1z"/>
		<path class="st2" d="M664.4,558.8v-66.2h9.5l0.3,17.6l-1-2.4c0.9-3,2.4-5.7,4.5-8.2c2.1-2.5,4.5-4.6,7.4-6.1
			c2.9-1.5,6-2.3,9.5-2.3c1.4,0,2.8,0.1,4.1,0.3c1.3,0.2,2.3,0.5,3.2,0.8l-2.7,10.6c-1.1-0.5-2.2-0.9-3.4-1.1
			c-1.1-0.2-2.2-0.3-3.2-0.3c-2.9,0-5.5,0.5-7.7,1.5c-2.3,1-4.2,2.4-5.8,4.2c-1.6,1.8-2.8,3.9-3.7,6.3c-0.8,2.4-1.3,4.9-1.3,7.6
			v37.5H664.4z"/>
		<path class="st2" d="M711.5,558.8v-66.2h9.5l0.3,15.1l-1.9,0.6c0.7-2.5,1.8-4.8,3.4-6.9c1.6-2.1,3.4-3.9,5.6-5.4
			c2.2-1.5,4.6-2.7,7.2-3.5c2.6-0.8,5.4-1.2,8.2-1.2c3.5,0,6.6,0.6,9.3,1.7c2.7,1.1,5.1,3.1,7,5.8c1.9,2.7,3.4,6.4,4.4,10.8
			l-2.3-1.1l0.9-2.2c0.8-1.9,2.1-3.8,3.7-5.6c1.6-1.8,3.6-3.4,5.7-4.9c2.2-1.4,4.5-2.6,7.1-3.4c2.6-0.8,5.2-1.2,7.9-1.2
			c4.6,0,8.6,1,11.8,3c3.2,2,5.6,5,7.3,9.1s2.5,9.2,2.5,15.5v39.9h-9.8v-39.4c0-4.4-0.6-8-1.6-10.8c-1.1-2.8-2.7-4.9-4.9-6.3
			s-4.9-2.1-8.2-2.1c-2.9,0-5.5,0.5-7.9,1.5c-2.4,1-4.5,2.3-6.2,4.1c-1.7,1.7-3.1,3.7-4.1,5.9c-1,2.2-1.5,4.6-1.5,7.1v40.1h-9.6
			v-39.6c0-4.2-0.6-7.7-1.7-10.5c-1.1-2.8-2.8-4.9-5-6.3c-2.2-1.4-4.9-2.2-8.1-2.2c-2.8,0-5.4,0.5-7.7,1.5c-2.4,1-4.4,2.3-6.1,4
			c-1.7,1.7-3.1,3.6-4.1,5.8c-1,2.2-1.5,4.6-1.5,7.1v40.2H711.5z"/>
		<path class="st2" d="M850.6,560.1c-5.1,0-9.4-1-12.9-3.1c-3.5-2.1-6.2-5.1-8-9.1c-1.8-4-2.7-8.9-2.7-14.8v-40.4h9.6v38.5
			c0,4.5,0.6,8.2,1.8,11.2c1.2,3,3.1,5.3,5.6,6.8c2.5,1.5,5.6,2.3,9.2,2.3c2.8,0,5.4-0.5,7.7-1.5c2.4-1,4.4-2.3,6.2-4
			c1.8-1.7,3.2-3.7,4.2-6c1-2.3,1.5-4.7,1.5-7.2v-40.2h9.5v66.2H873l-0.4-13.9l1.5-0.8c-1,3-2.7,5.6-5.1,8.1
			c-2.4,2.4-5.2,4.3-8.4,5.8C857.4,559.4,854.1,560.1,850.6,560.1z"/>
		<path class="st2" d="M901.2,558.8V465h9.5v93.8H901.2z"/>
		<path class="st2" d="M954.1,560.1c-5.7,0-10.9-1.5-15.6-4.5c-4.6-3-8.3-7.1-11-12.3c-2.7-5.2-4.1-11.1-4.1-17.7
			c0-6.7,1.4-12.6,4.2-17.7c2.8-5.2,6.5-9.2,11.2-12.2c4.7-3,10-4.4,15.8-4.4c3.5,0,6.7,0.5,9.6,1.5c3,1,5.6,2.4,7.9,4.2
			c2.3,1.8,4.3,3.9,5.8,6.3c1.6,2.4,2.6,5,3.2,7.8l-2.8-1.4l0.4-17.1h9.5v66.2h-9.6v-16.2l2.5-1.6c-0.6,2.5-1.7,5-3.4,7.3
			c-1.7,2.3-3.7,4.4-6.1,6.1c-2.4,1.8-5.1,3.2-8.1,4.2C960.5,559.6,957.4,560.1,954.1,560.1z M956.2,550.9c4.4,0,8.3-1.1,11.8-3.2
			c3.5-2.2,6.2-5.2,8.2-9c2-3.8,3-8.2,3-13.1c0-4.9-1-9.3-3-13.1c-2-3.8-4.7-6.8-8.2-9c-3.5-2.2-7.4-3.3-11.8-3.3
			c-4.5,0-8.4,1.1-11.9,3.3c-3.4,2.2-6.1,5.2-8.1,9c-2,3.8-3,8.2-3,13.1c0,4.8,1,9.2,2.9,13c1.9,3.8,4.6,6.9,8.1,9.1
			C947.8,549.8,951.7,550.9,956.2,550.9z"/>
	</g>
</g>
</svg>
