<svg width="87" height="105" viewBox="0 0 87 105" fill="none" xmlns="http://www.w3.org/2000/svg">
<path d="M18.9517 43.7617H34.8245V52.5243H18.9517C18.1004 52.5243 17.4245 51.8444 17.4245 50.9883V45.3229C17.3994 44.4416 18.1004 43.7617 18.9517 43.7617Z" fill="#4872F4"/>
<path d="M18.9517 61.2578H34.8245V69.9952H18.9517C18.1004 69.9952 17.4245 69.3154 17.4245 68.4593V62.7938C17.3994 61.9377 18.1004 61.2578 18.9517 61.2578Z" fill="#4872F4"/>
<path d="M18.9517 78.7656H34.8245V87.5282H18.9517C18.1004 87.5282 17.4245 86.8484 17.4245 85.9923V80.3268C17.3994 79.4455 18.1004 78.7656 18.9517 78.7656Z" fill="#4872F4"/>
<path d="M60.6363 34.9991H53.7264C52.8752 34.9991 52.1992 34.3193 52.1992 33.4632V27.7977C52.1992 26.9416 52.8752 26.2617 53.7264 26.2617H58.4582L60.6363 34.9991Z" fill="#4872F4"/>
<path d="M64.993 52.4991H53.7518C52.9006 52.4991 52.2246 51.8193 52.2246 50.9632V45.2977C52.2246 44.4416 52.9006 43.7617 53.7518 43.7617H62.8148L64.993 52.4991Z" fill="#4872F4"/>
<path d="M69.3492 69.9952H53.7518C52.9006 69.9952 52.2246 69.3154 52.2246 68.4593V62.7938C52.2246 61.9377 52.9006 61.2578 53.7518 61.2578H67.1711L69.3492 69.9952Z" fill="#4872F4"/>
<path d="M73.7055 87.503H53.7518C52.9006 87.503 52.2246 86.8232 52.2246 85.9671V80.3016C52.2246 79.4455 52.9006 78.7656 53.7518 78.7656H71.5273L73.7055 87.503Z" fill="#4872F4"/>
<path d="M57.8081 0H38.7807C36.5776 0 34.8 1.78777 34.8 4.0036V15.0324C34.8 16.5432 33.9488 17.9281 32.5968 18.6079L2.20317 33.8921C0.851223 34.5719 0 35.9568 0 37.4676V105H87L61.6636 3.02158C61.213 1.25899 59.6357 0 57.8081 0ZM30.8443 96.2626H12.6932C10.4901 96.2626 8.71252 94.4748 8.71252 92.259V42.8813C8.71252 41.3705 9.56374 39.9856 10.9157 39.3058L29.0668 30.1906C31.7206 28.8561 34.825 30.795 34.825 33.7662V92.259C34.8 94.4496 33.0224 96.2626 30.8443 96.2626ZM47.4932 8.76259H51.0233C52.8509 8.76259 54.4282 10.0216 54.8789 11.7842L74.6322 91.277C75.2581 93.795 73.3554 96.2374 70.7767 96.2374H47.4932C45.2901 96.2374 43.5125 94.4496 43.5125 92.2338V12.7662C43.5125 10.5504 45.2901 8.76259 47.4932 8.76259Z" fill="#041D36"/>
</svg>
