<svg width="79" height="69" viewBox="0 0 79 69" fill="none" xmlns="http://www.w3.org/2000/svg">
<path d="M35.1124 60.275V47.1998C35.0874 38.104 28.0348 30.6149 19.0382 29.8733C18.2158 29.7992 17.543 29.1566 17.543 28.3409V22.7549C17.543 21.8651 18.2906 21.1236 19.1878 21.173C24.9196 21.5191 30.1281 23.6942 34.29 27.0804C32.9442 20.9506 29.9786 15.414 25.8666 10.9403C25.2934 10.3224 25.2934 9.38315 25.8915 8.78994L29.8789 4.83526C30.502 4.21734 31.5486 4.21734 32.1717 4.85998C34.6139 7.45524 36.7073 10.3718 38.4518 13.4861C40.4704 8.66636 43.3114 4.26678 46.8502 0.485112C47.4483 -0.157524 48.495 -0.157524 49.118 0.460395L53.1054 4.41508C53.7035 5.00828 53.7035 5.94752 53.1303 6.56544C47.3985 12.7693 43.8846 21.0247 43.8846 30.1205V34.2729C47.5729 31.5294 52.0837 29.8239 57.043 29.8239H61.4291V36.9671C61.4291 37.8321 60.7313 38.5242 59.859 38.5242H57.043C49.766 38.5242 43.8846 44.3821 43.8846 51.5747V60.275H35.1124Z" fill="#969696"/>
<path d="M70.2527 52.9322V60.273H8.79716V52.9322C8.79716 52.0671 8.09937 51.375 7.22713 51.375H1.57003C0.697792 51.375 0 52.0671 0 52.9322V68.9981H79V52.9322C79 52.0671 78.3022 51.375 77.43 51.375H71.7978C70.9505 51.375 70.2527 52.0671 70.2527 52.9322Z" fill="#565656"/>
</svg>
