<svg width="20" height="19" viewBox="0 0 20 19" fill="none" xmlns="http://www.w3.org/2000/svg">
<path d="M19.7508 18.2484H19.0118V17.4596C19.5674 17.3512 19.9866 16.8883 19.9866 16.3351V15.6364C19.9866 15.0031 19.4374 14.4878 18.7624 14.4878C18.0874 14.4878 17.5382 15.0031 17.5382 15.6364V16.3351C17.5382 16.8881 17.9573 17.3511 18.513 17.4596V18.2484H16.9893V14.3177H17.2571C17.3947 14.3177 17.5065 14.2132 17.5065 14.0837V12.6027C17.5065 12.4733 17.3949 12.3687 17.2571 12.3687H16.5413V5.87671H16.8298C16.9674 5.87671 17.0792 5.77211 17.0792 5.64271V4.18322C17.0792 4.05382 16.9676 3.94922 16.8298 3.94922L2.80542 3.94938C2.66785 3.94938 2.55602 4.05398 2.55602 4.18338V5.64287C2.55602 5.77227 2.66767 5.87687 2.80542 5.87687H3.09395V18.2486H1.52714V17.4597C2.08279 17.3514 2.50197 16.8884 2.50197 16.3353V15.6365C2.50197 15.0032 1.95273 14.4879 1.27776 14.4879C0.602787 14.4879 0.053548 15.0032 0.053548 15.6365V16.3353C0.053548 16.8883 0.472695 17.3512 1.02839 17.4597L1.02856 18.2486H0.249402C0.111834 18.2486 0 18.3531 0 18.4826C0 18.612 0.111656 18.7165 0.249402 18.7165H19.7506C19.8882 18.7165 20 18.612 20 18.4826C19.9998 18.3531 19.8882 18.2486 19.7506 18.2486L19.7508 18.2484ZM18.0368 16.335V15.6362C18.0368 15.2611 18.3622 14.9554 18.7624 14.9554C19.1626 14.9554 19.488 15.2609 19.488 15.6362V16.335C19.488 16.7101 19.1626 17.0157 18.7624 17.0157C18.3622 17.0157 18.0368 16.7104 18.0368 16.335ZM0.552048 16.335V15.6362C0.552048 15.2611 0.877451 14.9554 1.27764 14.9554C1.67783 14.9554 2.00324 15.2609 2.00324 15.6362V16.335C2.00324 16.7101 1.67766 17.0157 1.27764 17.0157C0.877803 17.0157 0.552048 16.7104 0.552048 16.335ZM16.4905 18.2484H15.2572L15.2574 15.3115C15.2574 15.1821 15.1458 15.0775 15.008 15.0775L11.4527 15.0777C11.3152 15.0777 11.2033 15.1823 11.2033 15.3117L11.2035 18.2484H9.9765V14.3177H16.4903L16.4905 18.2484ZM13.48 15.5455H14.7588L14.7586 18.2484H13.4798L13.48 15.5455ZM12.9812 18.2484H11.7023V15.5455H12.9812V18.2484ZM17.0078 13.85H9.4535V12.8369H17.0073V13.85H17.0078ZM3.05461 4.41714H16.5803V5.40877H3.05461V4.41714ZM3.59219 5.87663H16.0427V12.3691H9.20435C9.06678 12.3691 8.95494 12.4737 8.95494 12.6031V14.0841C8.95494 14.2135 9.0666 14.3181 9.20435 14.3181H9.47809V18.2486H3.59212L3.59219 5.87663Z" fill="#041D36"/>
<path d="M10.7338 8.4358C10.8713 8.4358 10.9832 8.33121 10.9832 8.20181V7.17931C10.9832 7.04991 10.8715 6.94531 10.7338 6.94531C10.5962 6.94531 10.4844 7.04991 10.4844 7.17931V8.20181C10.4845 8.33121 10.5962 8.4358 10.7338 8.4358Z" fill="#041D36"/>
<path d="M12.476 8.4358C12.6135 8.4358 12.7254 8.33121 12.7254 8.20181V7.17931C12.7254 7.04991 12.6137 6.94531 12.476 6.94531C12.3384 6.94531 12.2266 7.04991 12.2266 7.17931V8.20181C12.2266 8.33121 12.3382 8.4358 12.476 8.4358Z" fill="#041D36"/>
<path d="M14.226 8.4358C14.3635 8.4358 14.4754 8.33121 14.4754 8.20181V7.17931C14.4754 7.04991 14.3637 6.94531 14.226 6.94531C14.0884 6.94531 13.9766 7.04991 13.9766 7.17931V8.20181C13.9766 8.33121 14.088 8.4358 14.226 8.4358Z" fill="#041D36"/>
<path d="M10.7338 11.1272C10.8713 11.1272 10.9832 11.0226 10.9832 10.8932V9.87072C10.9832 9.74132 10.8715 9.63672 10.7338 9.63672C10.5962 9.63672 10.4844 9.74132 10.4844 9.87072V10.8932C10.4845 11.0226 10.5962 11.1272 10.7338 11.1272Z" fill="#041D36"/>
<path d="M12.476 11.1272C12.6135 11.1272 12.7254 11.0226 12.7254 10.8932V9.87072C12.7254 9.74132 12.6137 9.63672 12.476 9.63672C12.3384 9.63672 12.2266 9.74132 12.2266 9.87072V10.8932C12.2266 11.0226 12.3382 11.1272 12.476 11.1272Z" fill="#041D36"/>
<path d="M14.226 11.1272C14.3635 11.1272 14.4754 11.0226 14.4754 10.8932V9.87072C14.4754 9.74132 14.3637 9.63672 14.226 9.63672C14.0884 9.63672 13.9766 9.74132 13.9766 9.87072V10.8932C13.9766 11.0226 14.088 11.1272 14.226 11.1272Z" fill="#041D36"/>
<path d="M5.48378 6.94531C5.34621 6.94531 5.23438 7.04991 5.23438 7.17931V8.20181C5.23438 8.33121 5.34603 8.4358 5.48378 8.4358C5.62134 8.4358 5.73318 8.33121 5.73318 8.20181V7.17931C5.73318 7.05024 5.62152 6.94531 5.48378 6.94531Z" fill="#041D36"/>
<path d="M7.23378 6.94531C7.09621 6.94531 6.98438 7.04991 6.98438 7.17931V8.20181C6.98438 8.33121 7.09603 8.4358 7.23378 8.4358C7.37134 8.4358 7.48318 8.33121 7.48318 8.20181V7.17931C7.483 7.05024 7.37135 6.94531 7.23378 6.94531Z" fill="#041D36"/>
<path d="M8.97596 8.4358C9.11353 8.4358 9.22537 8.33121 9.22537 8.20181V7.17931C9.22537 7.04991 9.11371 6.94531 8.97596 6.94531C8.8384 6.94531 8.72656 7.04991 8.72656 7.17931V8.20181C8.72656 8.33121 8.83822 8.4358 8.97596 8.4358Z" fill="#041D36"/>
<path d="M5.48378 9.63672C5.34621 9.63672 5.23438 9.74132 5.23438 9.87072V10.8932C5.23438 11.0226 5.34603 11.1272 5.48378 11.1272C5.62134 11.1272 5.73318 11.0226 5.73318 10.8932V9.87072C5.73318 9.74132 5.62152 9.63672 5.48378 9.63672Z" fill="#041D36"/>
<path d="M7.23378 9.63672C7.09621 9.63672 6.98438 9.74132 6.98438 9.87072V10.8932C6.98438 11.0226 7.09603 11.1272 7.23378 11.1272C7.37134 11.1272 7.48318 11.0226 7.48318 10.8932V9.87072C7.483 9.74132 7.37135 9.63672 7.23378 9.63672Z" fill="#041D36"/>
<path d="M5.48378 12.332C5.34621 12.332 5.23438 12.4366 5.23438 12.566V13.5885C5.23438 13.7179 5.34603 13.8225 5.48378 13.8225C5.62134 13.8225 5.73318 13.7179 5.73318 13.5885V12.566C5.73318 12.4365 5.62152 12.332 5.48378 12.332Z" fill="#041D36"/>
<path d="M7.23378 12.332C7.09621 12.332 6.98438 12.4366 6.98438 12.566V13.5885C6.98438 13.7179 7.09603 13.8225 7.23378 13.8225C7.37134 13.8225 7.48318 13.7179 7.48318 13.5885V12.566C7.483 12.4365 7.37135 12.332 7.23378 12.332Z" fill="#041D36"/>
<path d="M5.48378 15.0234C5.34621 15.0234 5.23438 15.128 5.23438 15.2574V16.2799C5.23438 16.4093 5.34603 16.5139 5.48378 16.5139C5.62134 16.5139 5.73318 16.4093 5.73318 16.2799V15.2574C5.73318 15.1282 5.62152 15.0234 5.48378 15.0234Z" fill="#041D36"/>
<path d="M7.23378 15.0234C7.09621 15.0234 6.98438 15.128 6.98438 15.2574V16.2799C6.98438 16.4093 7.09603 16.5139 7.23378 16.5139C7.37134 16.5139 7.48318 16.4093 7.48318 16.2799L7.483 15.2574C7.483 15.1282 7.37135 15.0234 7.23378 15.0234Z" fill="#041D36"/>
<path d="M9.22537 10.8932V9.87072C9.22537 9.74132 9.11371 9.63672 8.97596 9.63672C8.8384 9.63672 8.72656 9.74132 8.72656 9.87072V10.8932C8.72656 11.0226 8.83822 11.1272 8.97596 11.1272C9.11371 11.1272 9.22537 11.0226 9.22537 10.8932Z" fill="#041D36"/>
<path d="M0.667647 2.01294L0.606254 2.83291C0.600341 2.91369 0.638951 2.99136 0.708519 3.03852C0.778261 3.08617 0.868874 3.09628 0.9487 3.0661L1.76072 2.75818L2.57273 3.0661C2.60282 3.07752 2.63482 3.08323 2.6663 3.08323C2.71813 3.08323 2.76961 3.06822 2.81292 3.03852C2.88248 2.9912 2.92109 2.91352 2.91518 2.83291L2.85379 2.01294L3.4171 1.38374C3.4724 1.32206 3.48997 1.23803 3.46319 1.16133C3.43658 1.08464 3.36962 1.02606 3.28648 1.00648L2.43654 0.807565L1.97251 0.110613C1.88155 -0.0264544 1.64068 -0.0264544 1.54972 0.110613L1.08569 0.807565L0.235745 1.00648C0.152264 1.02606 0.0854787 1.08464 0.0590408 1.16133C0.0326051 1.23786 0.0498229 1.32223 0.105131 1.38374L0.667647 2.01294ZM1.30331 1.23866C1.36591 1.22398 1.42018 1.18694 1.45444 1.13553L1.76036 0.676023L2.06629 1.13553C2.10038 1.18726 2.15481 1.22398 2.21742 1.23866L2.77797 1.3697L2.40666 1.78466C2.36509 1.831 2.34439 1.89089 2.34909 1.95143L2.38944 2.49202L1.85413 2.28902C1.82422 2.2776 1.79222 2.27189 1.76056 2.27189C1.72891 2.27189 1.69691 2.27744 1.66699 2.28902L1.13169 2.49202L1.17204 1.95143C1.17656 1.89089 1.15586 1.831 1.11447 1.78466L0.743154 1.3697L1.30331 1.23866Z" fill="#041D36"/>
<path d="M7.58854 1.16054C7.5621 1.08385 7.49497 1.02526 7.41183 1.00568L6.56188 0.80677L6.09786 0.109819C6.0523 0.0416107 5.97229 0 5.8862 0C5.80011 0 5.72011 0.0416102 5.67472 0.109982L5.21069 0.806933L4.36075 1.00585C4.27726 1.02543 4.21048 1.08401 4.18404 1.1607C4.15761 1.23739 4.17482 1.3216 4.23013 1.38311L4.79344 2.01231L4.73205 2.83228C4.72613 2.91306 4.76474 2.99073 4.83431 3.03789C4.87762 3.06759 4.9291 3.0826 4.98093 3.0826C5.01241 3.0826 5.04423 3.07705 5.0745 3.06546L5.88651 2.75755L6.69835 3.06546C6.77818 3.09565 6.86896 3.08554 6.93818 3.03805C7.00775 2.99057 7.04636 2.91289 7.04045 2.83245L6.9794 2.0123L7.5424 1.38311C7.59771 1.32126 7.6151 1.23706 7.58849 1.16053L7.58854 1.16054ZM6.53249 1.78422C6.49092 1.83056 6.47023 1.89045 6.47492 1.95083L6.51527 2.49159L5.97996 2.28859C5.92013 2.26574 5.85283 2.26574 5.793 2.28859L5.2577 2.49159L5.29805 1.95099C5.30257 1.89045 5.28187 1.83057 5.24048 1.78422L4.86916 1.36926L5.42936 1.23823C5.49197 1.22354 5.54623 1.1865 5.58049 1.13527L5.88659 0.675588L6.19251 1.1351C6.2266 1.18683 6.28104 1.22354 6.34365 1.23823L6.9042 1.36926L6.53249 1.78422Z" fill="#041D36"/>
<path d="M11.7132 1.16133C11.6868 1.08464 11.6196 1.02606 11.5365 1.00648L10.6865 0.807565L10.2225 0.110613C10.1316 -0.0264544 9.89068 -0.0264544 9.79972 0.110613L9.3357 0.807565L8.48575 1.00648C8.40227 1.02606 8.33548 1.08464 8.30904 1.16133C8.2826 1.23803 8.29982 1.32223 8.35513 1.38374L8.91844 2.01294L8.85705 2.83291C8.85113 2.91369 8.88974 2.99136 8.95931 3.03852C9.02905 3.08617 9.11967 3.09628 9.19949 3.0661L10.0115 2.75818L10.8235 3.0661C10.8536 3.07752 10.8856 3.08323 10.9171 3.08323C10.9689 3.08323 11.0204 3.06822 11.0637 3.03852C11.1333 2.9912 11.1719 2.91353 11.166 2.83291L11.1046 2.01294L11.6679 1.38375C11.7223 1.32206 11.7397 1.23803 11.7131 1.16133L11.7132 1.16133ZM10.657 1.78501C10.6154 1.83136 10.5947 1.89124 10.5994 1.95178L10.6397 2.49238L10.1044 2.28938C10.0745 2.27796 10.0425 2.27225 10.0109 2.27225C9.97922 2.27225 9.94722 2.27779 9.9173 2.28938L9.382 2.49238L9.42235 1.95178C9.42687 1.89124 9.40617 1.83136 9.36478 1.78501L8.99346 1.37005L9.55401 1.23902C9.61662 1.22433 9.67088 1.18729 9.70514 1.13589L10.0111 0.676379L10.317 1.13589C10.3511 1.18762 10.4055 1.22433 10.4681 1.23902L11.0287 1.37005L10.657 1.78501Z" fill="#041D36"/>
<path d="M15.846 1.16107C15.8196 1.08438 15.7524 1.02579 15.6693 1.00621L14.8193 0.8073L14.3553 0.110348C14.2644 -0.0262304 14.0235 -0.0265563 13.9325 0.110512L13.4685 0.807463L12.6186 1.00638C12.5351 1.02596 12.4683 1.08454 12.4419 1.16123C12.4154 1.23776 12.4326 1.32213 12.4879 1.38364L13.0509 2.01284L12.9899 2.83298C12.984 2.91343 13.0226 2.9911 13.0922 3.03859C13.1617 3.08607 13.2522 3.09619 13.332 3.066L14.1438 2.75808L14.9558 3.066C14.9859 3.07742 15.0179 3.08313 15.0494 3.08313C15.1012 3.08313 15.1527 3.06812 15.196 3.03842C15.2656 2.9911 15.3042 2.91343 15.2983 2.83282L15.2369 2.01284L15.8002 1.38365C15.8552 1.3218 15.8724 1.23777 15.846 1.16107L15.846 1.16107ZM14.7898 1.78475C14.7482 1.83109 14.7275 1.89098 14.7322 1.95152L14.7726 2.49211L14.2373 2.28912C14.2073 2.27769 14.1753 2.27198 14.1437 2.27198C14.112 2.27198 14.08 2.27753 14.0501 2.28912L13.5148 2.49211L13.5552 1.95135C13.5597 1.89098 13.539 1.83109 13.4976 1.78474L13.1263 1.36978L13.6868 1.23875C13.7494 1.22406 13.8037 1.18702 13.838 1.13562L14.1439 0.67611L14.45 1.13579C14.4841 1.18719 14.5385 1.2239 14.6011 1.23875L15.1613 1.36978L14.7898 1.78475Z" fill="#041D36"/>
<path d="M19.971 1.16133C19.9446 1.08464 19.8774 1.02606 19.7943 1.00648L18.9443 0.807565L18.4803 0.110613C18.3894 -0.0264544 18.1485 -0.0264544 18.0575 0.110613L17.5935 0.807565L16.7436 1.00648C16.6601 1.02606 16.5933 1.08464 16.5669 1.16133C16.5404 1.23803 16.5576 1.32223 16.6129 1.38374L17.1763 2.01294L17.1149 2.83291C17.1089 2.91369 17.1476 2.99136 17.2171 3.03852C17.2867 3.08617 17.3771 3.09628 17.4573 3.0661L18.2693 2.75818L19.0813 3.0661C19.1114 3.07752 19.1434 3.08323 19.1749 3.08323C19.2267 3.08323 19.2782 3.06822 19.3215 3.03852C19.3911 2.9912 19.4297 2.91353 19.4238 2.83291L19.3624 2.01294L19.9254 1.38375C19.9802 1.32206 19.9977 1.23786 19.971 1.16133L19.971 1.16133ZM18.9151 1.78501C18.8736 1.83136 18.8529 1.89124 18.8576 1.95178L18.8979 2.49238L18.3626 2.28938C18.3327 2.27796 18.3007 2.27225 18.269 2.27225C18.2374 2.27225 18.2054 2.27779 18.1755 2.28938L17.6402 2.49238L17.6805 1.95178C17.685 1.89124 17.6643 1.83136 17.6229 1.78501L17.2516 1.37005L17.8122 1.23902C17.8748 1.22433 17.9291 1.18729 17.9633 1.13589L18.2692 0.676379L18.5752 1.13589C18.6093 1.18762 18.6637 1.22433 18.7263 1.23902L19.2868 1.37005L18.9151 1.78501Z" fill="#041D36"/>
</svg>
