<svg width="20" height="18" viewBox="0 0 20 18" fill="none" xmlns="http://www.w3.org/2000/svg">
<path d="M0 18V6L8 0L14.025 4.525C13.6917 4.525 13.3625 4.55833 13.0375 4.625C12.7125 4.69167 12.3917 4.79167 12.075 4.925L8 1.875L1.5 6.75V16.5H6.25V18H0ZM8 18V16.1C8 15.75 8.0875 15.4208 8.2625 15.1125C8.4375 14.8042 8.675 14.5583 8.975 14.375C9.74167 13.925 10.5458 13.5833 11.3875 13.35C12.2292 13.1167 13.1 13 14 13C14.9 13 15.7708 13.1167 16.6125 13.35C17.4542 13.5833 18.2583 13.925 19.025 14.375C19.325 14.5583 19.5625 14.8042 19.7375 15.1125C19.9125 15.4208 20 15.75 20 16.1V18H8ZM9.5 16.5H18.5V15.775C17.8 15.375 17.075 15.0625 16.325 14.8375C15.575 14.6125 14.8 14.5 14 14.5C13.2 14.5 12.425 14.6167 11.675 14.85C10.925 15.0833 10.2 15.4 9.5 15.8V16.5ZM14 12C13.1667 12 12.4583 11.7083 11.875 11.125C11.2917 10.5417 11 9.83333 11 9C11 8.16667 11.2917 7.45833 11.875 6.875C12.4583 6.29167 13.1667 6 14 6C14.8333 6 15.5417 6.29167 16.125 6.875C16.7083 7.45833 17 8.16667 17 9C17 9.83333 16.7083 10.5417 16.125 11.125C15.5417 11.7083 14.8333 12 14 12ZM14 10.5C14.4333 10.5 14.7917 10.3542 15.075 10.0625C15.3583 9.77083 15.5 9.41667 15.5 9C15.5 8.56667 15.3583 8.20833 15.075 7.925C14.7917 7.64167 14.4333 7.5 14 7.5C13.5833 7.5 13.2292 7.64167 12.9375 7.925C12.6458 8.20833 12.5 8.56667 12.5 9C12.5 9.41667 12.6458 9.77083 12.9375 10.0625C13.2292 10.3542 13.5833 10.5 14 10.5Z" fill="#041D36"/>
</svg>
