<svg width="95" height="105" viewBox="0 0 95 105" fill="none" xmlns="http://www.w3.org/2000/svg">
<path d="M43.1523 17.5H25.8832V8.72941H17.269V17.5H8.65484V0H0V105H8.65484V96.2294H21.5761V87.5H8.65484V78.7294H21.5761V70H8.65484V61.2294H21.5761V52.5H8.65484V43.7294H21.5761V35H8.65484V26.2294H36.7323L39.3328 35H30.231V43.7294H41.9333L44.5338 52.5H30.231V61.2294H47.0937L49.6942 70H30.231V78.7294H52.2947L54.8952 87.5H30.231V96.2294H57.4551L60.0556 105H69.0761L43.1523 17.5Z" fill="#041D36"/>
<path d="M21.6182 35.0781H8.65625V43.8487H21.6182V35.0781Z" fill="#4872F4"/>
<path d="M21.6182 52.5781H8.65625V61.3487H21.6182V52.5781Z" fill="#4872F4"/>
<path d="M21.6182 70.0781H8.65625V78.8076H21.6182V70.0781Z" fill="#4872F4"/>
<path d="M21.6182 87.5781H8.65625V96.3487H21.6182V87.5781Z" fill="#4872F4"/>
<path d="M41.9328 43.8487H30.2305V35.0781H39.3323L41.9328 43.8487Z" fill="#4872F4"/>
<path d="M47.0932 61.3487H30.2305V52.5781H44.5333L47.0932 61.3487Z" fill="#4872F4"/>
<path d="M52.2942 78.8487H30.2305V70.0781H49.6937L52.2942 78.8487Z" fill="#4872F4"/>
<path d="M57.4546 96.3487H30.2305V87.5781H54.8947L57.4546 96.3487Z" fill="#4872F4"/>
<path d="M86.3056 87.5H77.6914V96.2294H86.3056V87.5Z" fill="#4872F4"/>
<path d="M86.3056 70H77.6914V78.7294H86.3056V70Z" fill="#4872F4"/>
<path d="M86.3056 52.5H77.6914V61.2294H86.3056V52.5Z" fill="#4872F4"/>
<path d="M86.3056 35H77.6914V43.7294H86.3056V35Z" fill="#4872F4"/>
<path d="M86.3056 17.5H77.6914V26.2294H86.3056V17.5Z" fill="#4872F4"/>
<path d="M60.4199 0V105H69.0748V8.72941H86.3438V105H94.9986V0H60.4199Z" fill="#041D36"/>
</svg>
