<svg width="24" height="26" viewBox="0 0 24 26" fill="none" xmlns="http://www.w3.org/2000/svg">
<path d="M21.3106 17.8871C21.3493 17.5862 21.3702 17.2803 21.3702 16.9753C21.3702 16.961 21.3686 16.9466 21.3657 16.9323C20.9513 15.0006 19.3751 12.6026 18.4729 11.3454L18.6104 11.4292C18.918 11.6169 19.2892 11.6237 19.6032 11.4474C19.917 11.2712 20.1045 10.9512 20.1045 10.5911V8.75273C20.1045 8.39268 19.9172 8.07256 19.6032 7.89642C19.2891 7.72009 18.9181 7.72692 18.6102 7.91477L17.871 8.36658C17.8426 7.48941 17.6862 6.54747 17.0428 5.80236C16.9917 5.17798 16.3628 4.6875 15.8382 4.6875C15.2926 4.6875 14.8489 5.22404 14.8489 5.88352C14.8489 6.54296 15.2926 7.07954 15.8382 7.07954C16.2509 7.07954 16.7281 6.776 16.9379 6.34272C17.2145 6.76664 17.3742 7.29203 17.4363 7.98606C17.2414 7.81422 16.9856 7.70644 16.6691 7.77392C16.1178 7.89141 15.9418 8.36642 15.915 8.72539L15.2322 8.72557C14.7104 8.72557 14.2859 9.15003 14.2859 9.67184C14.2859 9.92429 14.3841 10.1618 14.5632 10.3415C14.7424 10.52 14.9799 10.6183 15.2323 10.6183H15.9324L16.3754 16.1385C16.4377 16.9116 16.1822 17.6515 15.6562 18.2216C15.1303 18.7916 14.4135 19.1054 13.6378 19.1054H12.282C11.8008 19.1054 11.3425 18.8983 11.0248 18.537C10.7074 18.176 10.5605 17.6954 10.6219 17.2184L10.9193 14.9009C11.2495 14.8612 11.5548 14.7138 11.7936 14.4748C12.0754 14.1924 12.2306 13.8175 12.2306 13.4192C12.2306 12.8254 11.8782 12.2878 11.3324 12.0494C10.7935 11.8142 10.2543 11.6951 9.72939 11.6951C9.08865 11.6951 8.29333 11.819 7.52431 11.9389C6.74106 12.0609 6.0012 12.1762 5.57742 12.1332C5.33883 12.1087 5.05383 12.0285 4.75207 11.9436C3.96845 11.7228 3.08012 11.4727 2.54391 12.09C2.18782 12.5003 2.15723 13.2031 2.46636 13.8807C2.65259 14.289 2.92339 14.5972 3.22764 14.7664C2.04585 15.482 1.33763 16.5106 1.11902 17.8323H0.772289C0.346388 17.8323 0 18.1786 0 18.6046V19.7378C0 20.1637 0.346369 20.5101 0.772289 20.5101H1.09059V20.7848C1.09059 21.1866 1.41753 21.5136 1.81931 21.5136H1.91881C1.75759 21.8927 1.67302 22.3036 1.67302 22.7195C1.67302 24.4161 3.0533 25.7965 4.75007 25.7965C6.37756 25.7965 7.7132 24.5258 7.81901 22.9243H16.2665C16.6024 22.9243 16.9335 22.8892 17.2543 22.8212C17.3083 24.471 18.6659 25.7966 20.3282 25.7966C22.0248 25.7966 23.4053 24.4163 23.4053 22.7195C23.4053 22.4806 23.3776 22.2454 23.324 22.0163C23.4492 22.077 23.5732 22.1414 23.6948 22.2101C23.7259 22.2277 23.7607 22.2364 23.7952 22.2364C23.8308 22.2364 23.8665 22.2272 23.8983 22.2087C23.9611 22.1721 23.9998 22.105 24 22.0323C24.0061 20.0479 23.1014 18.6541 21.3107 17.8869L21.3106 17.8871ZM4.7501 25.387C3.27913 25.387 2.0826 24.1903 2.0826 22.7195C2.0826 22.2992 2.18283 21.8852 2.37122 21.5136H3.23075C2.96157 21.8533 2.8088 22.2778 2.8088 22.7195C2.8088 23.7899 3.67967 24.6608 4.75012 24.6608C5.82016 24.6608 6.69089 23.79 6.69089 22.7195C6.69089 22.4361 6.63043 22.1634 6.51653 21.914C6.88035 22.1193 7.17762 22.4052 7.41568 22.7773C7.38491 24.2216 6.20151 25.387 4.75016 25.387H4.7501ZM16.2663 22.5148H7.73405C7.32327 21.8938 6.74389 21.4737 6.01047 21.2651C6.00544 21.2633 6.00022 21.2619 5.995 21.2605C5.62452 21.1568 5.20581 21.1043 4.75006 21.1043H1.81931C1.64298 21.1043 1.49993 20.9612 1.49993 20.7849V20.3054C1.49993 20.1924 1.40834 20.1006 1.29517 20.1006H0.772124C0.571677 20.1006 0.4092 19.9381 0.4092 19.7377V18.6045C0.4092 18.404 0.571677 18.2415 0.772124 18.2415H1.29517C1.39809 18.2415 1.485 18.1651 1.49813 18.063C1.68382 16.6337 2.43988 15.6028 3.80809 14.9122H10.5042L10.2151 17.1663C10.1386 17.7599 10.3214 18.3582 10.7166 18.8075C11.1121 19.2571 11.6823 19.5149 12.2811 19.5149H13.6369C14.5153 19.5149 15.3607 19.1448 15.9564 18.4992C16.552 17.8538 16.8532 16.9813 16.7828 16.1057L16.3247 10.3972C16.3161 10.2908 16.2274 10.2088 16.1207 10.2088H15.2316C15.0884 10.2088 14.9533 10.1528 14.8521 10.0521C14.746 9.94554 14.6897 9.80249 14.6952 9.65171C14.7058 9.36022 14.9576 9.13493 15.2494 9.13493H16.1208C16.1788 9.13493 16.2338 9.10992 16.2727 9.06709C16.3116 9.02409 16.3303 8.96633 16.3245 8.90875C16.318 8.84434 16.2749 8.27663 16.7542 8.17428C17.2409 8.07028 17.4669 8.76015 17.4763 8.78913C17.5027 8.87333 17.5815 8.93415 17.6764 8.93271C17.7145 8.93217 17.7514 8.91904 17.7838 8.89925L18.8232 8.2639C19.0084 8.15108 19.2329 8.15037 19.4195 8.26318C19.5942 8.3688 19.6946 8.56421 19.6946 8.76844V10.5748C19.6946 10.779 19.5942 10.9746 19.4193 11.0802C19.2328 11.1931 19.0082 11.1923 18.8232 11.0795L17.7785 10.4413L17.7694 10.439C17.5903 10.3936 17.4374 10.5739 17.5113 10.7433C17.5401 10.7796 20.3915 14.3981 20.9601 16.9967C20.959 17.328 20.9335 17.6603 20.8842 17.9849C20.7114 19.1288 20.2584 20.1562 19.5737 20.9564C19.2986 21.2781 18.989 21.557 18.6535 21.7851C18.267 22.048 17.8473 22.2425 17.4057 22.3634C17.0404 22.4642 16.657 22.5151 16.266 22.5151L16.2663 22.5148ZM20.3281 25.387C18.8575 25.387 17.6611 24.1903 17.6611 22.7195V22.7148C17.9197 22.6344 18.1711 22.5311 18.4129 22.4052C18.3962 22.5081 18.3873 22.613 18.3873 22.7195C18.3873 23.7899 19.258 24.6608 20.3281 24.6608C21.3985 24.6608 22.2694 23.79 22.2694 22.7195C22.2694 22.2661 22.1141 21.8405 21.8415 21.5024C22.1865 21.5796 22.5152 21.6795 22.8331 21.8031C22.9406 22.0962 22.9956 22.4039 22.9956 22.7195C22.9956 24.1905 21.7989 25.387 20.3281 25.387L20.3281 25.387ZM23.0816 21.4611C23.0775 21.4591 23.0733 21.4573 23.069 21.4555C22.4718 21.2144 21.8429 21.0544 21.1464 20.9668C21.1421 20.9659 21.1376 20.9652 21.1331 20.9647C20.8213 20.926 20.4958 20.9019 20.1476 20.8913C20.6878 20.1544 21.0624 19.2717 21.2448 18.3054C22.724 18.9703 23.492 20.0803 23.5813 21.6867C23.4168 21.6043 23.2496 21.5289 23.0816 21.4611L23.0816 21.4611Z" fill="#041D36"/>
<path d="M8.17335 9.57192H9.83829C9.95129 9.57192 10.0431 9.48033 10.0431 9.36715V6.07007H11.9921C13.6656 6.07007 15.0272 4.7085 15.0272 3.03494C15.027 1.36157 13.6655 0 11.9921 0H9.00572C8.43389 0 7.96875 0.465327 7.96875 1.03747V9.36702C7.96857 9.48001 8.06034 9.57178 8.17333 9.57178L8.17335 9.57192ZM10.043 3.99601V2.07468H11.992C12.5218 2.07468 12.9527 2.50562 12.9527 3.03532C12.9527 3.56502 12.5217 3.99596 11.992 3.99596L10.043 3.99601Z" fill="#041D36"/>
</svg>
