<svg width="33" height="33" viewBox="0 0 33 33" fill="none" xmlns="http://www.w3.org/2000/svg">
<path d="M18.6106 18.8633H23.0006C23.2606 18.8633 23.4706 19.0733 23.4706 19.3333V23.7233C23.4706 23.9833 23.2606 24.1933 23.0006 24.1933H18.6106C18.3506 24.1933 18.1406 23.9833 18.1406 23.7233V19.3333C18.1406 19.0733 18.3506 18.8633 18.6106 18.8633Z" fill="currentColor"/>
<path d="M26.5906 0.191406H7.02063C6.50063 0.191406 6.03062 0.531406 5.86062 1.02141L2.14062 12.1914C2.14062 14.4014 3.93063 16.1914 6.14063 16.1914C7.17063 16.1914 8.10063 15.7914 8.81063 15.1514C9.52063 15.7914 10.4506 16.1914 11.4806 16.1914C12.5106 16.1914 13.4406 15.7914 14.1506 15.1514C14.8606 15.7914 15.7906 16.1914 16.8206 16.1914C17.8506 16.1914 18.7806 15.7914 19.4906 15.1514C20.2006 15.7914 21.1306 16.1914 22.1606 16.1914C23.1906 16.1914 24.1206 15.7914 24.8306 15.1514C25.5406 15.7914 26.4706 16.1914 27.5006 16.1914C29.7106 16.1914 31.5006 14.4014 31.5006 12.1914L27.7506 1.02141C27.5906 0.521406 27.1206 0.191406 26.5906 0.191406ZM27.4706 13.5214C26.7306 13.5214 26.1406 12.9214 26.1406 12.1914C26.1406 11.4614 25.5406 10.8614 24.8106 10.8614C24.0706 10.8614 23.4806 11.4614 23.4806 12.1914C23.4806 12.9214 22.8806 13.5214 22.1506 13.5214C21.4106 13.5214 20.8206 12.9214 20.8206 12.1914C20.8206 11.4614 20.2206 10.8614 19.4906 10.8614C18.7506 10.8614 18.1606 11.4614 18.1606 12.1914C18.1606 12.9214 17.5606 13.5214 16.8306 13.5214C16.0906 13.5214 15.5006 12.9214 15.5006 12.1914C15.5006 11.4614 14.9006 10.8614 14.1706 10.8614C13.4306 10.8614 12.8406 11.4614 12.8406 12.1914C12.8406 12.9214 12.2406 13.5214 11.5106 13.5214C10.7706 13.5214 10.1806 12.9214 10.1806 12.1914C10.1806 11.4614 9.58063 10.8614 8.85063 10.8614C8.12063 10.8614 7.52063 11.4614 7.52063 12.1914C7.52063 12.9214 6.92062 13.5214 6.19062 13.5214C5.45062 13.5214 4.86063 12.9214 4.86063 12.1914L7.97063 2.86141H25.7006L28.8106 12.1914C28.8106 12.9314 28.2106 13.5214 27.4706 13.5214Z" fill="currentColor"/>
<path d="M28.8105 29.4431V15.9631C28.3905 16.1131 27.9505 16.1931 27.4805 16.1931C27.0105 16.1931 26.5605 16.1031 26.1505 15.9531V29.4431H15.4705V19.3331C15.4705 19.0731 15.2605 18.8631 15.0005 18.8631H10.6105C10.3505 18.8631 10.1405 19.0731 10.1405 19.3331V29.4431H7.47055V15.9531C7.05055 16.1031 6.61055 16.1931 6.14055 16.1931C5.67055 16.1931 5.22055 16.1131 4.81055 15.9631V29.4431H2.06055C1.37055 29.4431 0.810547 30.0031 0.810547 30.6931V32.1931H32.8505V30.6931C32.8505 30.0031 32.2905 29.4431 31.6005 29.4431H28.8105Z" fill="currentColor"/>
</svg>
